<?xml version="1.0" ?><svg xmlns="http://www.w3.org/2000/svg" xmlns:xlink="http://www.w3.org/1999/xlink" version="1.1" viewBox="0 0 512 512" style="enable-background:new 0 0 512 512;" xml:space="preserve"><g id="_x32_0_x2C__Company_x2C__Business_x2C__Organization_x2C__Enterprise_x2C__Firm_x2C__Corporation"><g><g><rect x="318.5" y="176.002" width="20" height="60"/><rect x="318.5" y="246.001" width="20" height="60"/><rect x="318.5" y="316.001" width="20" height="60"/><rect x="378.499" y="316.001" width="20" height="60"/><rect x="378.499" y="246.001" width="20" height="60"/><rect x="378.499" y="176.002" width="20" height="60"/><path d="M488.499,471h-60.343v-60h5c2.762,0,5-2.238,5-5V146.002c0-2.762-2.238-5-5-5h-5v-30c0-2.762-2.238-5-5-5h-15v-20     c0-2.762-2.238-5-5-5H283.156v-20c0-2.198-1.437-4.14-3.539-4.782l-179.999-55c-3.244-0.984-6.461,1.451-6.461,4.782v80     c-2.762,0-5,2.238-5,5v20c0,2.762,2.238,5,5,5v20c-2.762,0-5,2.238-5,5v20c0,2.762,2.238,5,5,5h0.004V201.2     c-41.629,2.76-74.66,37.486-74.66,79.802s33.03,77.042,74.66,79.802V471h-49.66c-2.762,0-5,2.238-5,5v30c0,2.762,2.238,5,5,5     h444.998c2.762,0,5-2.238,5-5v-30C493.499,473.238,491.26,471,488.499,471z M28.501,281.001c0-38.597,31.402-70,70-70     s70,31.402,70,70s-31.402,70-70,70S28.501,319.599,28.501,281.001z M243.156,111.002V471H103.161V360.855     c6.94-0.401,13.641-1.695,20-3.76v3.907c0,2.762,2.238,5,5,5c2.762,0,5-2.238,5-5v-7.905c7.365-3.555,14.092-8.221,19.996-13.755     v21.66c0,2.762,2.238,5,5,5s5-2.238,5-5v-25c0-1.937-1.113-3.597-2.723-4.427c11.284-13.793,18.066-31.403,18.066-50.572     c0-31.704-18.538-59.16-45.343-72.097v-22.903c0-2.762-2.238-5-5-5c-2.762,0-5,2.238-5,5v18.905     c-6.358-2.065-13.058-3.358-19.996-3.759v-35.146h119.995c2.762,0,5-2.238,5-5v-20c0-2.762-2.238-5-5-5H103.157v-20h119.999     c2.762,0,5-2.238,5-5v-20c0-2.762-2.238-5-5-5H103.157V12.759l169.999,51.944v16.3h-5c-2.762,0-5,2.238-5,5v20h-15     C245.395,106.002,243.156,108.24,243.156,111.002z M418.155,141.002H283.156c-2.762,0-5,2.238-5,5v259.999c0,2.762,2.238,5,5,5     h134.999v60H253.156V116.002c20.802,0,144.358,0,164.999,0V141.002z M408.499,171.002c0,42.251,0,161.834,0,209.999     c0,2.762-2.238,5-5,5c-9.341,0-80.497,0-90,0c-2.762,0-5-2.238-5-5v-70c0-17.045,0-123.066,0-139.999c0-2.762,2.238-5,5-5     c9.341,0,80.497,0,90,0C406.261,166.002,408.499,168.24,408.499,171.002z"/><rect x="348.5" y="316.001" width="20" height="60"/><rect x="348.5" y="246.001" width="20" height="60"/><rect x="348.5" y="176.002" width="20" height="60"/><path d="M158.157,181.002c-2.762,0-5,2.238-5,5v25c0,2.762,2.238,5,5,5s5-2.238,5-5v-25     C163.157,183.24,160.918,181.002,158.157,181.002z"/><path d="M188.157,181.002c-2.762,0-5,2.238-5,5v25c0,2.762,2.238,5,5,5s5-2.238,5-5v-25     C193.157,183.24,190.918,181.002,188.157,181.002z"/><path d="M218.156,181.002c-2.762,0-5,2.238-5,5v25c0,2.762,2.238,5,5,5s5-2.238,5-5v-25     C223.156,183.24,220.918,181.002,218.156,181.002z"/><path d="M188.157,231.002c-2.762,0-5,2.238-5,5v25c0,2.762,2.238,5,5,5s5-2.238,5-5v-25     C193.157,233.24,190.918,231.002,188.157,231.002z"/><path d="M218.156,231.002c-2.762,0-5,2.238-5,5v25c0,2.762,2.238,5,5,5s5-2.238,5-5v-25     C223.156,233.24,220.918,231.002,218.156,231.002z"/><path d="M188.157,281.001c-2.762,0-5,2.238-5,5v25c0,2.762,2.238,5,5,5s5-2.238,5-5v-25     C193.157,283.24,190.918,281.001,188.157,281.001z"/><path d="M218.156,281.001c-2.762,0-5,2.238-5,5v25c0,2.762,2.238,5,5,5s5-2.238,5-5v-25     C223.156,283.24,220.918,281.001,218.156,281.001z"/><path d="M188.157,331.001c-2.762,0-5,2.238-5,5v25c0,2.762,2.238,5,5,5s5-2.238,5-5v-25     C193.157,333.239,190.918,331.001,188.157,331.001z"/><path d="M218.156,331.001c-2.762,0-5,2.238-5,5v25c0,2.762,2.238,5,5,5s5-2.238,5-5v-25     C223.156,333.239,220.918,331.001,218.156,331.001z"/><path d="M128.157,381.001c-2.762,0-5,2.238-5,5v25c0,2.762,2.238,5,5,5c2.762,0,5-2.238,5-5v-25     C133.157,383.239,130.919,381.001,128.157,381.001z"/><path d="M158.157,381.001c-2.762,0-5,2.238-5,5v25c0,2.762,2.238,5,5,5s5-2.238,5-5v-25     C163.157,383.239,160.918,381.001,158.157,381.001z"/><path d="M188.157,381.001c-2.762,0-5,2.238-5,5v25c0,2.762,2.238,5,5,5s5-2.238,5-5v-25     C193.157,383.239,190.918,381.001,188.157,381.001z"/><path d="M218.156,381.001c-2.762,0-5,2.238-5,5v25c0,2.762,2.238,5,5,5s5-2.238,5-5v-25     C223.156,383.239,220.918,381.001,218.156,381.001z"/><path d="M98.501,221.002c-33.084,0-60,26.916-60,60s26.916,60,60,60s60-26.916,60-60S131.585,221.002,98.501,221.002z      M113.501,276.001c2.762,0,5,2.238,5,5v25c0,2.762-2.238,5-5,5h-10v5c0,2.762-2.238,5-5,5s-5-2.238-5-5v-5h-10     c-2.762,0-5-2.238-5-5c0-2.762,2.238-5,5-5h25v-15h-25c-2.762,0-5-2.238-5-5v-25c0-2.762,2.238-5,5-5h10v-5c0-2.762,2.238-5,5-5     s5,2.238,5,5v5h10c2.762,0,5,2.238,5,5c0,2.762-2.238,5-5,5h-25v15H113.501z"/></g></g></g><g id="Layer_1"/></svg>
