<svg width="128" height="128" style="enable-background:new 0 0 128 128;" xmlns="http://www.w3.org/2000/svg" xmlns:xlink="http://www.w3.org/1999/xlink">
  <g id="Layer_1">
    <path d="M119.53,108.05H8.22c-2.4,0-4.35-1.95-4.35-4.35V36.24c0-2.41,1.95-4.37,4.37-4.37h111.27 c2.41,0,4.37,1.95,4.37,4.37v67.46C123.88,106.11,121.93,108.05,119.53,108.05z" style="fill:#2E7D32;"/>
    <linearGradient id="SVGID_1_" gradientUnits="userSpaceOnUse" x1="63.875" x2="63.875" y1="95.875" y2="32.1793">
      <stop offset="0" style="stop-color:#43A047"/>
      <stop offset="0.9992" style="stop-color:#66BB6A"/>
    </linearGradient>
    <path d="M119.65,95.88H8.1c-2.33,0-4.22-1.89-4.22-4.22V36.24c0-2.41,1.95-4.37,4.37-4.37h111.27 c2.41,0,4.37,1.95,4.37,4.37v55.41C123.88,93.99,121.99,95.88,119.65,95.88z" style="fill:url(#SVGID_1_);"/>
    <g>
      <path d="M39.55,71.34c0-1.23-0.43-2.27-1.29-3.11c-0.86-0.84-2.32-1.61-4.37-2.29 c-2.85-0.87-4.93-2-6.23-3.4c-1.31-1.4-1.96-3.18-1.96-5.33c0-2.2,0.64-4,1.92-5.4c1.28-1.41,3.04-2.24,5.27-2.51v-3.47 c0-0.51,0.42-0.93,0.93-0.93h1.13c0.51,0,0.93,0.42,0.93,0.93v3.49c2.25,0.31,4,1.25,5.25,2.83c1.12,1.42,1.74,3.3,1.86,5.65 c0.02,0.46-0.36,0.84-0.82,0.84H40.1c-0.44,0-0.78-0.35-0.82-0.79c-0.11-1.53-0.55-2.77-1.32-3.72c-0.9-1.11-2.11-1.67-3.63-1.67 c-1.59,0-2.81,0.41-3.65,1.24c-0.84,0.82-1.27,1.98-1.27,3.45c0,1.37,0.45,2.46,1.34,3.27c0.89,0.81,2.36,1.55,4.4,2.21 c2.04,0.66,3.63,1.39,4.78,2.19c1.14,0.8,1.99,1.72,2.53,2.78c0.54,1.06,0.81,2.3,0.81,3.72c0,2.26-0.68,4.08-2.04,5.46 c-1.36,1.38-3.26,2.2-5.71,2.45v2.9c0,0.51-0.42,0.93-0.93,0.93h-1.11c-0.51,0-0.93-0.42-0.93-0.93v-2.9 c-2.49-0.23-4.44-1.11-5.85-2.66c-1.26-1.38-1.96-3.2-2.09-5.45c-0.03-0.46,0.36-0.84,0.82-0.84h2.09c0.42,0,0.78,0.31,0.81,0.73 c0.11,1.51,0.59,2.7,1.44,3.57c0.98,1,2.36,1.51,4.16,1.51c1.75,0,3.13-0.42,4.14-1.27C39.05,73.95,39.55,72.79,39.55,71.34z" style="fill:#FFFFFF;"/>
      <polygon points="35.52,80.06 32.55,79.21 32.89,49.38 32.89,48.38 35.88,49.31 35.52,79.18 " style="fill:#FFFFFF;"/>
    </g>
    <circle cx="84.65" cy="63.88" r="18.5" style="opacity:0.5;fill:#2E7D32;"/>
    <path d="M106.33,39.06c0.86,5.4,5.14,9.68,10.54,10.54v28.54c-5.4,0.86-9.68,5.14-10.54,10.54H21.3 c-1.1-5.11-5.26-9.05-10.42-9.87V50.27c5.63-0.89,10.03-5.49,10.63-11.21H106.33 M108.17,37.06H19.56 c0.01,0.22,0.02,0.44,0.02,0.67c0,5.91-4.79,10.7-10.7,10.7v32.23c5.68,0,10.33,4.43,10.68,10.03h88.61 c0-5.91,4.79-10.7,10.7-10.7V47.76C112.96,47.76,108.17,42.97,108.17,37.06L108.17,37.06z" style="fill:#2E7D32;"/>
    <rect height="76.18" style="fill:#FFECB3;" width="22.01" x="52.87" y="31.88"/>
    <rect height="12.18" style="opacity:0.5;fill:#FFB74D;" width="22.01" x="52.87" y="95.88"/>
    <g style="opacity:0.2;">
      <path d="M119.51,32.88c1.86,0,3.37,1.51,3.37,3.37v67.46c0,1.85-1.5,3.35-3.35,3.35H8.22 c-1.85,0-3.35-1.5-3.35-3.35V36.24c0-1.86,1.51-3.37,3.37-3.37H119.51 M119.51,31.88H8.24c-2.41,0-4.37,1.95-4.37,4.37v67.46 c0,2.4,1.95,4.35,4.35,4.35h111.3c2.4,0,4.35-1.95,4.35-4.35V36.24C123.88,33.83,121.92,31.88,119.51,31.88L119.51,31.88z" style="fill:#424242;"/>
    </g>
  </g>
</svg>
